<?xml version="1.0" encoding="utf-8"?>
<!-- Generator: Adobe Illustrator 16.0.0, SVG Export Plug-In . SVG Version: 6.00 Build 0)  -->
<!DOCTYPE svg PUBLIC "-//W3C//DTD SVG 1.1//EN" "http://www.w3.org/Graphics/SVG/1.1/DTD/svg11.dtd">
<svg version="1.1" id="icon" xmlns="http://www.w3.org/2000/svg" xmlns:xlink="http://www.w3.org/1999/xlink" x="0px" y="0px"
	 width="80px" height="80px" viewBox="24 24 80 80" enable-background="new 24 24 80 80" xml:space="preserve">
<g>
	<path fill="#FFFFFF" d="M73.409,55.093c-0.368,0.365-0.775,0.654-1.265,0.941c-0.024,0.032-0.048,0.066-0.072,0.1
		c1.764,1.305,2.899,3.315,2.899,5.57v9.634c0,6.012-4.891,10.903-10.902,10.903c-6.125,0-11.106-4.857-11.106-10.828v-9.885
		c0-2.149,1.132-4.073,2.904-5.348c-0.392-0.331-0.791-0.667-1.217-0.999c-0.03-0.023-0.052-0.05-0.078-0.074
		c-1.992,1.574-3.251,3.868-3.251,6.421v9.885c0,6.876,5.719,12.47,12.749,12.47c6.917,0,12.545-5.628,12.545-12.545v-9.634
		C76.614,59.067,75.37,56.7,73.409,55.093z"/>
	<path fill="#FFFFFF" d="M64.201,83.53c-0.453,0-0.82-0.368-0.82-0.82V70.707c0-0.453,0.367-0.821,0.82-0.821
		s0.821,0.368,0.821,0.821V82.71C65.022,83.163,64.654,83.53,64.201,83.53z"/>
	<path fill="#FFFFFF" d="M64.201,71.528c-0.453,0-0.82-0.368-0.82-0.821c0-3.825,5.409-6.822,12.314-6.822
		c0.453,0,0.821,0.368,0.821,0.821s-0.368,0.821-0.821,0.821c-5.785,0-10.673,2.372-10.673,5.18
		C65.022,71.16,64.654,71.528,64.201,71.528z"/>
	<path fill="#FFFFFF" d="M64.201,71.389c-0.453,0-0.82-0.367-0.82-0.82c0-2.732-4.985-5.041-10.886-5.041
		c-0.454,0-0.821-0.368-0.821-0.821s0.368-0.821,0.821-0.821c7.142,0,12.527,2.873,12.527,6.684
		C65.022,71.021,64.654,71.389,64.201,71.389z"/>
	<path fill="#FFFFFF" d="M63.712,58.467c-4.695,0-8.504-1.524-8.664-1.589c-0.102-0.041-0.194-0.103-0.272-0.18
		c-1.415-1.416-1.415-3.72,0-5.135l2.981-2.981c0.686-0.686,1.598-1.063,2.567-1.063s1.881,0.378,2.567,1.063
		c0.02,0.018,0.06,0.048,0.101,0.081c0.019,0.015,0.036,0.028,0.054,0.043h1.442c0.037-0.038,0.075-0.076,0.112-0.113
		c0.696-0.696,1.608-1.074,2.578-1.074s1.882,0.378,2.567,1.063l2.98,2.981c0.687,0.686,1.063,1.597,1.063,2.566
		c0,0.971-0.377,1.882-1.063,2.568c-0.079,0.078-0.173,0.141-0.277,0.182C72.286,56.945,68.404,58.467,63.712,58.467z
		 M55.828,55.418c0.756,0.28,4.043,1.407,7.884,1.407c3.844,0,7.193-1.129,7.965-1.409c0.306-0.359,0.472-0.81,0.472-1.286
		c0-0.53-0.207-1.03-0.583-1.406l-2.98-2.981c-0.375-0.375-0.875-0.582-1.407-0.582c-0.531,0-1.03,0.207-1.406,0.583
		c-0.152,0.152-0.24,0.245-0.271,0.283c-0.155,0.197-0.399,0.321-0.65,0.321h-2.118c-0.241,0-0.47-0.106-0.625-0.288
		c-0.036-0.034-0.088-0.074-0.137-0.112c-0.098-0.078-0.188-0.153-0.24-0.205c-0.375-0.375-0.874-0.582-1.406-0.582
		s-1.031,0.207-1.407,0.582l-2.98,2.98C55.2,53.461,55.164,54.637,55.828,55.418z"/>
	<path fill="#FFFFFF" d="M60.251,55.527"/>
	<path fill="#FFFFFF" d="M64.069,84.294c-7.17,0-13.003-5.789-13.003-12.905v-9.852c0-2.255,0.812-4.136,2.474-5.722
		c-0.525-1.536-0.182-3.416,0.946-4.543l2.98-2.98c0.764-0.763,1.778-1.184,2.858-1.184s2.094,0.42,2.857,1.183l0,0
		c0.001,0,0.004,0.002,0.007,0.005h1.129l0.001-0.001c0.767-0.766,1.781-1.187,2.86-1.187s2.094,0.42,2.857,1.183l2.98,2.981
		c1.014,1.013,1.406,2.715,1.059,4.173c1.958,1.721,2.95,3.823,2.95,6.26v9.634C77.024,78.482,71.213,84.294,64.069,84.294z
		 M60.324,49.571c-0.422,0-0.818,0.164-1.117,0.462l-2.98,2.98c-0.543,0.543-0.625,1.748-0.164,2.39
		c0.386,0.534,0.281,1.277-0.236,1.687c-1.59,1.254-2.299,2.626-2.299,4.447v9.852c0,5.758,4.729,10.442,10.541,10.442
		c5.785,0,10.492-4.707,10.492-10.493v-9.634c0-1.928-0.878-3.521-2.685-4.872c-0.493-0.369-0.639-1.045-0.339-1.584
		c0.354-0.64,0.225-1.746-0.263-2.233l-2.98-2.981c-0.596-0.596-1.636-0.597-2.232,0c-0.063,0.063-0.181,0.178-0.242,0.252
		c-0.232,0.305-0.587,0.473-0.97,0.473h-2.118c-0.351,0-0.683-0.148-0.915-0.406c-0.03-0.026-0.067-0.055-0.103-0.082
		c-0.113-0.09-0.216-0.178-0.275-0.237C61.143,49.735,60.746,49.571,60.324,49.571z"/>
	<path fill="#FFFFFF" d="M69.166,50.394c-0.681,0-1.231-0.551-1.231-1.231c0-0.68,0.551-1.231,1.231-1.231
		c1.613,0,2.926-1.659,2.926-3.699c0-0.68,0.551-1.231,1.231-1.231c0.68,0,1.231,0.552,1.231,1.231
		C74.555,47.63,72.137,50.394,69.166,50.394z"/>
	<path fill="#FFFFFF" d="M58.496,50.394c-2.971,0-5.388-2.764-5.388-6.162c0-0.68,0.551-1.231,1.231-1.231s1.231,0.552,1.231,1.231
		c0,2.04,1.312,3.699,2.925,3.699c0.68,0,1.231,0.552,1.231,1.231C59.728,49.843,59.176,50.394,58.496,50.394z"/>
	<path fill="#FFFFFF" d="M76.039,64.173c-0.489,0-0.951-0.294-1.145-0.775c-0.252-0.631,0.056-1.348,0.688-1.601l5.964-2.381
		c-1.583-2.257-4.47-7.047-4.47-11.958c0-0.681,0.552-1.231,1.231-1.231c0.681,0,1.231,0.551,1.231,1.231
		c0,5.724,4.855,11.66,4.904,11.72c0.25,0.304,0.341,0.709,0.244,1.09c-0.098,0.381-0.371,0.693-0.736,0.84l-7.456,2.978
		C76.346,64.145,76.19,64.173,76.039,64.173z"/>
	<path fill="#FFFFFF" d="M52.297,64.173c-0.152,0-0.307-0.028-0.456-0.088l-7.457-2.978c-0.366-0.146-0.64-0.459-0.737-0.84
		c-0.098-0.383-0.006-0.787,0.245-1.091c0.048-0.059,4.904-5.995,4.904-11.719c0-0.681,0.551-1.231,1.231-1.231
		s1.231,0.551,1.231,1.231c0,4.911-2.887,9.701-4.469,11.958l5.964,2.381c0.632,0.253,0.939,0.97,0.687,1.601
		C53.249,63.879,52.786,64.173,52.297,64.173z"/>
	<path fill="#FFFFFF" d="M83.912,79.188c-0.68,0-1.231-0.552-1.231-1.231v-9.197l-7.292-2.536c-0.642-0.224-0.981-0.926-0.759-1.567
		c0.224-0.644,0.927-0.982,1.568-0.76l8.118,2.824c0.495,0.173,0.827,0.639,0.827,1.163v10.073
		C85.144,78.636,84.593,79.188,83.912,79.188z"/>
	<path fill="#FFFFFF" d="M44.088,79.188c-0.68,0-1.231-0.552-1.231-1.231V67.885c0-0.524,0.332-0.991,0.827-1.164l8.119-2.823
		c0.644-0.223,1.345,0.116,1.568,0.759c0.223,0.642-0.116,1.344-0.758,1.567l-7.292,2.536v9.197
		C45.319,78.637,44.768,79.188,44.088,79.188z"/>
	<path fill="#FFFFFF" d="M78.006,85c-0.101,0-0.204-0.013-0.307-0.038c-0.658-0.17-1.056-0.841-0.887-1.499l1.91-7.449l-3.844-7.686
		c-0.304-0.607-0.057-1.348,0.551-1.651c0.608-0.303,1.348-0.058,1.652,0.551l4.049,8.096c0.133,0.266,0.164,0.57,0.092,0.857
		l-2.024,7.895C79.056,84.631,78.555,85,78.006,85z"/>
	<path fill="#FFFFFF" d="M49.929,85c-0.549,0-1.049-0.369-1.192-0.926l-2.024-7.895c-0.074-0.287-0.042-0.591,0.091-0.856
		l4.048-8.097c0.304-0.607,1.043-0.854,1.652-0.551c0.608,0.304,0.854,1.044,0.55,1.652l-3.843,7.686l1.91,7.448
		c0.169,0.658-0.228,1.33-0.887,1.499C50.133,84.987,50.03,85,49.929,85z"/>
	<path fill="#FFFFFF" d="M63.712,58.467c-4.695,0-8.504-1.524-8.664-1.589c-0.102-0.041-0.194-0.103-0.272-0.18
		c-1.415-1.416-1.415-3.72,0-5.135l2.981-2.981c0.686-0.686,1.598-1.063,2.567-1.063s1.881,0.378,2.567,1.063
		c0.02,0.018,0.06,0.048,0.101,0.081c0.019,0.015,0.036,0.028,0.054,0.043h1.442c0.037-0.038,0.075-0.076,0.112-0.113
		c0.696-0.696,1.608-1.074,2.578-1.074s1.882,0.378,2.567,1.063l2.98,2.981c0.687,0.686,1.063,1.597,1.063,2.566
		c0,0.971-0.377,1.882-1.063,2.568c-0.079,0.078-0.173,0.141-0.277,0.182C72.286,56.945,68.404,58.467,63.712,58.467z
		 M55.828,55.418c0.756,0.28,4.043,1.407,7.884,1.407c3.844,0,7.193-1.129,7.965-1.409c0.306-0.359,0.472-0.81,0.472-1.286
		c0-0.53-0.207-1.03-0.583-1.406l-2.98-2.981c-0.375-0.375-0.875-0.582-1.407-0.582c-0.531,0-1.03,0.207-1.406,0.583
		c-0.152,0.152-0.24,0.245-0.271,0.283c-0.155,0.197-0.399,0.321-0.65,0.321h-2.118c-0.241,0-0.47-0.106-0.625-0.288
		c-0.036-0.034-0.088-0.074-0.137-0.112c-0.098-0.078-0.188-0.153-0.24-0.205c-0.375-0.375-0.874-0.582-1.406-0.582
		s-1.031,0.207-1.407,0.582l-2.98,2.98C55.2,53.461,55.164,54.637,55.828,55.418z"/>
</g>
</svg>
