<?xml version="1.0" encoding="utf-8"?>
<!-- Generator: Adobe Illustrator 16.0.0, SVG Export Plug-In . SVG Version: 6.00 Build 0)  -->
<!DOCTYPE svg PUBLIC "-//W3C//DTD SVG 1.1//EN" "http://www.w3.org/Graphics/SVG/1.1/DTD/svg11.dtd">
<svg version="1.1" id="Слой_3" xmlns="http://www.w3.org/2000/svg" xmlns:xlink="http://www.w3.org/1999/xlink" x="0px" y="0px"
	 width="80px" height="80px" viewBox="0 0 80 80" enable-background="new 0 0 80 80" xml:space="preserve">
<g>
	<path fill="#FFFFFF" d="M40.261,58c-0.308,0-0.614-0.117-0.85-0.354l-16.183-16.18c-4.445-4.447-4.445-11.682,0-16.127
		c2.154-2.154,5.018-3.34,8.063-3.34s5.91,1.186,8.063,3.34l0.904,0.905l0.905-0.905c2.153-2.154,5.019-3.34,8.063-3.34
		s5.908,1.186,8.063,3.34c2.152,2.153,3.34,5.018,3.34,8.063s-1.188,5.909-3.34,8.063L41.109,57.648
		C40.875,57.883,40.568,58,40.261,58z M31.292,24.402c-2.404,0-4.664,0.936-6.364,2.636c-3.51,3.509-3.51,9.22,0,12.728L40.261,55.1
		l15.333-15.334c3.51-3.508,3.51-9.219,0-12.728c-1.699-1.7-3.961-2.636-6.363-2.636c-2.404,0-4.664,0.936-6.365,2.636l-1.756,1.754
		c-0.469,0.47-1.229,0.47-1.697,0l-1.754-1.754C35.957,25.338,33.695,24.402,31.292,24.402z"/>
	<path fill="#FFFFFF" d="M21.38,39.58h-4.405c-0.664,0-1.201-0.538-1.201-1.202c0-0.663,0.539-1.2,1.201-1.2h4.405
		c0.664,0,1.201,0.537,1.201,1.2S22.044,39.58,21.38,39.58z"/>
	<path fill="#FFFFFF" d="M40.602,46.827c-0.339,0-0.64-0.212-0.754-0.528l-4.55-12.601l-2.381,5.062
		c-0.132,0.279-0.246,0.42-0.556,0.42H21.947c-0.441,0-0.969-0.319-0.969-0.762c0-0.441,0.358-0.801,0.801-0.801h9.904l2.986-6.348
		c0.139-0.293,0.416-0.476,0.762-0.459c0.324,0.015,0.606,0.224,0.717,0.527l4.444,12.313l3.657-10.305
		c0.107-0.309,0.395-0.519,0.72-0.533c0.335-0.008,0.63,0.172,0.765,0.47l1.789,3.935H59.02c0.442,0,0.801,0.359,0.801,0.801
		c0,0.442-0.188,0.763-0.631,0.763H47.176c-0.314,0-0.77-0.146-0.896-0.431l-1.184-2.6l-3.74,10.544
		c-0.112,0.319-0.414,0.533-0.752,0.534C40.604,46.827,40.602,46.827,40.602,46.827z"/>
	<path fill="#FFFFFF" d="M63.023,39.18H59.42c-0.663,0-1.201-0.537-1.201-1.201s0.538-1.201,1.201-1.201h3.604
		c0.664,0,1.203,0.537,1.203,1.201C64.227,38.641,63.689,39.18,63.023,39.18z"/>
</g>
</svg>
