<?xml version="1.0" encoding="utf-8"?>
<!-- Generator: Adobe Illustrator 16.0.0, SVG Export Plug-In . SVG Version: 6.00 Build 0)  -->
<!DOCTYPE svg PUBLIC "-//W3C//DTD SVG 1.1//EN" "http://www.w3.org/Graphics/SVG/1.1/DTD/svg11.dtd">
<svg version="1.1" id="Слой_3" xmlns="http://www.w3.org/2000/svg" xmlns:xlink="http://www.w3.org/1999/xlink" x="0px" y="0px"
	 width="80px" height="80px" viewBox="24 24 80 80" enable-background="new 24 24 80 80" xml:space="preserve">
<g>
	<path fill="#FFFFFF" d="M50.257,80.425c-2.898,0-5.624-1.129-7.674-3.179c-2.051-2.051-3.18-4.775-3.18-7.675
		s1.129-5.625,3.18-7.674l12.685-12.685c2.05-2.05,4.775-3.179,7.675-3.179s5.624,1.129,7.675,3.179
		c2.05,2.05,3.179,4.775,3.179,7.675c-0.001,2.899-1.129,5.625-3.179,7.674L57.932,77.246
		C55.882,79.296,53.156,80.425,50.257,80.425z M62.942,48.472c-2.248,0-4.36,0.875-5.95,2.464L44.308,63.622
		c-1.59,1.589-2.465,3.702-2.465,5.949c0,2.248,0.875,4.361,2.465,5.95c1.589,1.59,3.702,2.465,5.949,2.465
		c2.248,0,4.361-0.875,5.95-2.465l12.686-12.685c1.589-1.589,2.464-3.702,2.464-5.95c0-2.247-0.875-4.36-2.464-5.95
		C67.303,49.347,65.189,48.472,62.942,48.472z"/>
	<path fill="#FFFFFF" d="M50.257,80.425c-2.898,0-5.624-1.129-7.674-3.179c-2.051-2.051-3.18-4.775-3.18-7.675
		s1.129-5.625,3.18-7.674l7.674-7.675l1.726,1.725l-7.675,7.675c-1.59,1.589-2.465,3.702-2.465,5.949
		c0,2.248,0.875,4.361,2.465,5.95c1.589,1.59,3.702,2.465,5.949,2.465c2.248,0,4.361-0.875,5.95-2.465l7.674-7.675l1.726,1.725
		l-7.675,7.675C55.882,79.296,53.156,80.425,50.257,80.425z"/>
	
		<rect x="46.436" y="62.063" transform="matrix(-0.7071 -0.7071 0.7071 -0.7071 52.3633 147.4425)" fill="#FFFFFF" width="20.562" height="1.627"/>
	<path fill="#FFFFFF" d="M72.577,84c-1.845,0-3.579-0.718-4.883-2.022c-1.305-1.305-2.023-3.039-2.023-4.884
		c0-1.844,0.719-3.578,2.023-4.883l7.486-7.486c1.305-1.305,3.039-2.023,4.883-2.023c1.845,0,3.58,0.719,4.884,2.023
		c1.305,1.304,2.022,3.038,2.022,4.883s-0.718,3.578-2.022,4.883l-7.487,7.487C76.156,83.282,74.422,84,72.577,84z M80.063,65.141
		c-1.192,0-2.314,0.465-3.158,1.309l-7.486,7.486c-0.844,0.844-1.309,1.966-1.309,3.158c0,1.194,0.465,2.315,1.309,3.159
		c0.843,0.844,1.965,1.309,3.158,1.309c1.192,0,2.314-0.465,3.158-1.309l7.487-7.487c0.843-0.843,1.308-1.965,1.308-3.158
		s-0.465-2.314-1.308-3.158C82.379,65.605,81.257,65.141,80.063,65.141z"/>
	<path fill="#FFFFFF" d="M72.577,84c-1.845,0-3.579-0.718-4.883-2.022c-1.305-1.305-2.023-3.039-2.023-4.884
		c0-1.844,0.719-3.578,2.023-4.883l4.02-4.021c0.477-0.477,1.249-0.477,1.726,0s0.477,1.248,0,1.725l-4.021,4.021
		c-0.845,0.844-1.309,1.965-1.309,3.158s0.464,2.314,1.308,3.158s1.966,1.309,3.158,1.309c1.193,0,2.315-0.465,3.158-1.309
		l4.021-4.021c0.476-0.477,1.248-0.477,1.725,0c0.476,0.477,0.476,1.248,0,1.725l-4.021,4.021C76.156,83.282,74.422,84,72.577,84z"
		/>
	
		<rect x="69.989" y="72.328" transform="matrix(-0.7071 -0.7071 0.7071 -0.7071 78.6823 178.877)" fill="#FFFFFF" width="12.803" height="1.626"/>
	<path fill="#FFFFFF" d="M81.889,57.416c-3.699,0-6.709-3.009-6.709-6.708S78.189,44,81.889,44c3.698,0,6.708,3.009,6.708,6.708
		S85.587,57.416,81.889,57.416z M81.889,46.439c-2.354,0-4.27,1.915-4.27,4.269s1.915,4.269,4.27,4.269
		c2.354,0,4.269-1.915,4.269-4.269S84.242,46.439,81.889,46.439z"/>
	<path fill="#FFFFFF" d="M78.026,55.383c-0.208,0-0.416-0.079-0.575-0.238c-0.317-0.317-0.317-0.832,0-1.149l7.114-7.115
		c0.317-0.317,0.833-0.317,1.15,0s0.317,0.832,0,1.15l-7.115,7.114C78.442,55.304,78.233,55.383,78.026,55.383z"/>
</g>
</svg>
