<?xml version="1.0" encoding="utf-8"?>
<!-- Generator: Adobe Illustrator 16.0.0, SVG Export Plug-In . SVG Version: 6.00 Build 0)  -->
<!DOCTYPE svg PUBLIC "-//W3C//DTD SVG 1.1//EN" "http://www.w3.org/Graphics/SVG/1.1/DTD/svg11.dtd">
<svg version="1.1" id="Слой_3" xmlns="http://www.w3.org/2000/svg" xmlns:xlink="http://www.w3.org/1999/xlink" x="0px" y="0px"
	 width="80px" height="80px" viewBox="24 24 80 80" enable-background="new 24 24 80 80" xml:space="preserve">
<g>
	<path fill="#FFFFFF" d="M82.234,72.292c-2.436,0-4.416-2.347-4.416-5.23c0-3.335,3.086-7.485,3.438-7.948
		c0.232-0.305,0.594-0.484,0.978-0.484c0.003,0,0.005,0,0.008,0c0.387,0.002,0.749,0.186,0.979,0.496
		c0.351,0.473,3.429,4.714,3.429,7.936C86.649,69.946,84.669,72.292,82.234,72.292z M82.226,62.059
		c-0.905,1.461-1.949,3.511-1.949,5.003c0,1.503,0.896,2.772,1.957,2.772s1.958-1.27,1.958-2.772
		C84.191,65.619,83.136,63.545,82.226,62.059z"/>
	<path fill="#FFFFFF" d="M52.976,85c-1.049,0-2.098-0.399-2.896-1.197l-7.532-7.533c-1.597-1.597-1.597-4.195,0-5.793
		c1.599-1.598,4.198-1.596,5.795-0.001l1.822,1.823c0.48,0.48,0.48,1.258,0,1.738c-0.48,0.48-1.259,0.48-1.738,0l-1.822-1.822
		c-0.64-0.64-1.679-0.64-2.318,0c-0.639,0.639-0.639,1.679,0,2.316l7.532,7.533c0.639,0.639,1.679,0.639,2.318-0.001
		c0.639-0.639,0.639-1.679,0-2.317l-2.022-2.022c-0.48-0.479-0.48-1.258,0-1.737c0.48-0.48,1.257-0.48,1.738,0l2.022,2.022
		c1.597,1.597,1.597,4.195,0,5.793C55.074,84.601,54.025,85,52.976,85z"/>
	<path fill="#FFFFFF" d="M50.97,79.505L50.97,79.505c-0.326,0-0.639-0.13-0.869-0.36l-3.186-3.187c-0.48-0.48-0.48-1.259,0-1.738
		l6.64-6.64c0.48-0.479,1.258-0.479,1.738,0c0.48,0.48,0.48,1.259,0,1.738l-5.771,5.771l1.448,1.448l5.771-5.771
		c0.48-0.479,1.258-0.479,1.738,0c0.48,0.48,0.48,1.258,0,1.738l-6.64,6.64C51.609,79.375,51.297,79.505,50.97,79.505z"/>
	<path fill="#FFFFFF" d="M62.543,76.843L49.217,63.517l2.896-2.897l13.325,13.325L62.543,76.843z M49.796,63.517l12.746,12.746
		l2.317-2.317L52.114,61.2L49.796,63.517z"/>
	<path fill="#FFFFFF" d="M54.432,69.671c-0.314,0-0.629-0.12-0.869-0.36l-4.925-4.924c-0.23-0.231-0.36-0.543-0.36-0.869
		s0.129-0.639,0.36-0.869l2.607-2.607c0.48-0.48,1.258-0.48,1.738,0l2.028,2.027c0.48,0.48,0.48,1.258,0,1.738
		c-0.479,0.48-1.258,0.48-1.738,0l-1.159-1.158l-0.869,0.869l4.056,4.056c0.48,0.479,0.48,1.257,0,1.737
		C55.061,69.551,54.746,69.671,54.432,69.671z"/>
	<path fill="#FFFFFF" d="M62.543,77.782c-0.314,0-0.629-0.12-0.869-0.36l-4.925-4.925c-0.48-0.479-0.48-1.257,0-1.737
		c0.479-0.48,1.258-0.48,1.738,0l4.056,4.055l0.869-0.869l-1.159-1.158c-0.48-0.479-0.48-1.258,0-1.738
		c0.479-0.479,1.258-0.479,1.738,0l2.028,2.027c0.23,0.231,0.359,0.543,0.359,0.869s-0.129,0.639-0.359,0.869l-2.607,2.607
		C63.172,77.662,62.857,77.782,62.543,77.782z"/>
	<path fill="#FFFFFF" d="M62.826,72.865c-0.315,0-0.629-0.12-0.87-0.36c-0.48-0.48-0.48-1.258,0-1.738L77.31,55.413l-6.374-6.373
		L55.583,64.393c-0.48,0.48-1.258,0.48-1.738,0s-0.48-1.258,0-1.738l16.222-16.223c0.479-0.48,1.258-0.48,1.737,0l8.111,8.111
		c0.48,0.48,0.48,1.258,0,1.738L63.694,72.505C63.455,72.745,63.14,72.865,62.826,72.865z"/>
	<path fill="#FFFFFF" d="M75.281,52.297c-0.315,0-0.629-0.12-0.869-0.36c-0.48-0.479-0.48-1.258,0-1.738l6.839-6.839
		c0.479-0.48,1.258-0.48,1.737,0c0.48,0.48,0.48,1.258,0,1.738l-6.838,6.838C75.909,52.177,75.596,52.297,75.281,52.297z"/>
	<path fill="#FFFFFF" d="M67.356,56.915c-0.209,0-0.419-0.08-0.579-0.24l-2.606-2.607c-0.32-0.32-0.32-0.839,0-1.159
		c0.319-0.32,0.837-0.32,1.158,0l2.607,2.607c0.319,0.32,0.319,0.839,0,1.159C67.775,56.835,67.566,56.915,67.356,56.915z"/>
	<path fill="#FFFFFF" d="M62.826,72.455c-0.209,0-0.418-0.079-0.578-0.238c-0.321-0.318-0.323-0.838-0.004-1.158l8.633-8.691
		L59.6,59.731l-3.735,3.719c-0.321,0.319-0.839,0.318-1.159-0.003c-0.319-0.321-0.317-0.84,0.003-1.159l4.058-4.039
		c0.2-0.199,0.49-0.28,0.765-0.217l13.148,3.074c0.29,0.067,0.52,0.287,0.602,0.572s0.003,0.593-0.206,0.804l-9.667,9.731
		C63.247,72.374,63.036,72.455,62.826,72.455z"/>
	<path fill="#FFFFFF" d="M69.56,52.973c-0.21,0-0.419-0.08-0.579-0.24l-1.737-1.737c-0.32-0.32-0.32-0.839,0-1.159
		c0.319-0.32,0.838-0.32,1.158,0l1.737,1.738c0.32,0.32,0.32,0.838,0,1.158C69.979,52.893,69.77,52.973,69.56,52.973z"/>
	<path fill="#FFFFFF" d="M64.08,58.454c-0.209,0-0.419-0.08-0.579-0.24l-1.738-1.738c-0.32-0.319-0.32-0.839,0-1.159
		s0.838-0.32,1.158,0l1.739,1.738c0.319,0.319,0.319,0.839,0,1.159C64.5,58.374,64.29,58.454,64.08,58.454z"/>
	<path fill="#FFFFFF" d="M60.797,61.736c-0.21,0-0.419-0.08-0.579-0.24l-1.738-1.738c-0.32-0.32-0.32-0.839,0-1.159
		s0.838-0.32,1.159,0l1.738,1.738c0.32,0.32,0.32,0.839,0,1.159C61.216,61.656,61.007,61.736,60.797,61.736z"/>
	<path fill="#FFFFFF" d="M63.123,73.316c-0.21,0-0.42-0.079-0.58-0.24l-8.98-8.98c-0.32-0.32-0.32-0.838,0-1.158s0.838-0.32,1.159,0
		l8.98,8.98c0.319,0.32,0.319,0.839,0,1.158C63.542,73.237,63.332,73.316,63.123,73.316z"/>
	<path fill="#FFFFFF" d="M58.487,72.737c-0.21,0-0.419-0.08-0.58-0.24l-4.345-4.345c-0.32-0.319-0.32-0.839,0-1.159
		c0.32-0.319,0.838-0.319,1.159,0l4.345,4.346c0.32,0.32,0.32,0.839,0,1.159C58.907,72.657,58.697,72.737,58.487,72.737z"/>
</g>
</svg>
