<?xml version="1.0" encoding="utf-8"?>
<!-- Generator: Adobe Illustrator 16.0.0, SVG Export Plug-In . SVG Version: 6.00 Build 0)  -->
<!DOCTYPE svg PUBLIC "-//W3C//DTD SVG 1.1//EN" "http://www.w3.org/Graphics/SVG/1.1/DTD/svg11.dtd">
<svg version="1.1" id="Слой_3" xmlns="http://www.w3.org/2000/svg" xmlns:xlink="http://www.w3.org/1999/xlink" x="0px" y="0px"
	 width="80px" height="80px" viewBox="24 24 80 80" enable-background="new 24 24 80 80" xml:space="preserve">
<g>
	<path fill="#FFFFFF" d="M78.135,49.865c-0.669,0-1.212-0.542-1.212-1.211v-0.148c-0.023-0.179-0.134-0.806-0.293-1.602l-0.175-0.87
		c-0.061-0.302-0.436-0.611-0.743-0.611H52.289c-0.308,0-0.684,0.309-0.744,0.61l-0.175,0.871c-0.159,0.796-0.269,1.423-0.293,1.602
		v0.148c0,0.669-0.542,1.211-1.211,1.211c-0.669,0-1.212-0.542-1.212-1.211v-0.202c0-0.08,0-0.323,0.34-2.024l0.175-0.871
		C49.455,44.124,50.826,43,52.289,43h23.423c1.462,0,2.833,1.124,3.119,2.558l0.175,0.87c0.341,1.701,0.341,1.944,0.341,2.024v0.202
		C79.346,49.323,78.804,49.865,78.135,49.865z"/>
	<path fill="#FFFFFF" d="M78.135,85h-28.27c-0.669,0-1.211-0.542-1.211-1.212l-0.001-35.134c0-0.669,0.543-1.211,1.212-1.211
		c0.669,0,1.212,0.542,1.212,1.211v33.923h25.846V48.654c0-0.669,0.543-1.211,1.212-1.211s1.212,0.542,1.212,1.211l-0.001,35.134
		C79.346,84.458,78.804,85,78.135,85z"/>
	<path fill="#FFFFFF" d="M76.923,66.827v4.442H51.077v-4.442H76.923 M78.538,65.211H49.461v7.674h29.077V65.211L78.538,65.211z"/>
	<path fill="#FFFFFF" d="M65.615,76.923H54.711c-0.446,0-0.808-0.362-0.808-0.808s0.361-0.808,0.808-0.808h10.904
		c0.446,0,0.808,0.362,0.808,0.808S66.062,76.923,65.615,76.923z"/>
	<path fill="#FFFFFF" d="M61.981,80.154h-7.27c-0.446,0-0.808-0.362-0.808-0.809c0-0.445,0.361-0.808,0.808-0.808h7.27
		c0.446,0,0.808,0.362,0.808,0.808C62.789,79.792,62.427,80.154,61.981,80.154z"/>
	<path fill="#FFFFFF" d="M78.135,50.269H50.269c-0.446,0-0.808-0.362-0.808-0.808s0.361-0.808,0.808-0.808h27.866
		c0.446,0,0.808,0.362,0.808,0.808S78.581,50.269,78.135,50.269z"/>
	<path fill="#FFFFFF" d="M78.135,47.846H50.269c-0.446,0-0.808-0.362-0.808-0.808s0.361-0.808,0.808-0.808h27.866
		c0.446,0,0.808,0.362,0.808,0.808S78.581,47.846,78.135,47.846z"/>
	<path fill="#FFFFFF" d="M64.404,59.154c0,0.667-0.363,1.211-0.808,1.211s-0.808-0.545-0.808-1.211v-2.423
		c0-0.667,0.363-1.212,0.808-1.212s0.808,0.545,0.808,1.212V59.154z"/>
	<path fill="#FFFFFF" d="M62.385,58.75c-0.667,0-1.212-0.363-1.212-0.808s0.545-0.808,1.212-0.808h2.423
		c0.666,0,1.212,0.363,1.212,0.808s-0.546,0.808-1.212,0.808H62.385z"/>
</g>
</svg>
