<?xml version="1.0" encoding="utf-8"?>
<!-- Generator: Adobe Illustrator 16.0.0, SVG Export Plug-In . SVG Version: 6.00 Build 0)  -->
<!DOCTYPE svg PUBLIC "-//W3C//DTD SVG 1.1//EN" "http://www.w3.org/Graphics/SVG/1.1/DTD/svg11.dtd">
<svg version="1.1" id="Capa_1" xmlns="http://www.w3.org/2000/svg" xmlns:xlink="http://www.w3.org/1999/xlink" x="0px" y="0px"
	 width="50px" height="50px" viewBox="0 0 50 50" enable-background="new 0 0 50 50" xml:space="preserve">
<g>
	<path fill="#FFFFFF" d="M42.48,18.078c-0.44-7.5-6.623-13.495-14.076-13.495c-4.525,0-8.907,2.219-11.622,5.84
		c-0.063-0.033-0.129-0.055-0.193-0.086c-0.163-0.079-0.328-0.154-0.498-0.222c-0.098-0.039-0.198-0.074-0.298-0.109
		c-0.164-0.058-0.331-0.108-0.5-0.154c-0.1-0.027-0.199-0.054-0.3-0.078c-0.183-0.042-0.37-0.073-0.558-0.101
		c-0.088-0.014-0.174-0.03-0.263-0.04c-0.277-0.032-0.556-0.051-0.84-0.051c-4.135,0-7.5,3.364-7.5,7.5
		c0,0.107,0.006,0.212,0.013,0.317C2.381,19.29,0,23.249,0,27.212c0,5.902,4.802,10.704,10.704,10.704h5.218l-4.387,7.5h26.927
		l-4.387-7.5h5.899C45.504,37.916,50,33.42,50,27.894C50,23.319,46.811,19.217,42.48,18.078z M35.559,43.75H14.442l3.412-5.834h0
		L25,25.697l7.146,12.219h0.001L35.559,43.75z M39.977,36.25h-6.874L25,22.396L16.897,36.25h-6.193
		c-4.983,0-9.038-4.055-9.038-9.038c0-3.462,2.254-7.055,5.36-8.544L7.5,18.441v-0.525c0-0.103,0.007-0.208,0.013-0.313L7.52,17.46
		l-0.01-0.168c-0.005-0.069-0.01-0.138-0.01-0.208c0-3.216,2.617-5.833,5.833-5.833c0.257,0,0.512,0.022,0.764,0.056
		c0.065,0.008,0.13,0.02,0.195,0.03c0.223,0.037,0.442,0.085,0.658,0.146c0.029,0.008,0.059,0.014,0.088,0.022
		c0.238,0.073,0.469,0.165,0.696,0.268c0.058,0.027,0.116,0.055,0.173,0.083c0.201,0.099,0.397,0.208,0.587,0.332
		c1.605,1.041,2.671,2.845,2.671,4.896c0,0.46,0.374,0.833,0.833,0.833s0.833-0.373,0.833-0.833c0-2.295-1.039-4.349-2.667-5.726
		C20.555,8.232,24.49,6.25,28.403,6.25c6.454,0,11.815,5.112,12.374,11.573c-0.852-0.06-2.127-0.091-3.403,0.104
		c-0.455,0.069-0.768,0.494-0.698,0.949c0.063,0.412,0.418,0.708,0.822,0.708c0.042,0,0.084-0.003,0.127-0.01
		c1.856-0.28,3.79-0.018,3.903-0.002c3.881,0.738,6.806,4.312,6.806,8.321C48.334,32.501,44.584,36.25,39.977,36.25z"/>
	<path fill="#FFFFFF" d="M25,29.584c-0.46,0-0.833,0.372-0.833,0.832v6.668c0,0.46,0.374,0.832,0.833,0.832s0.834-0.372,0.834-0.832
		v-6.668C25.834,29.956,25.46,29.584,25,29.584z"/>
	<path fill="#FFFFFF" d="M25,39.584c-0.46,0-0.833,0.372-0.833,0.832v0.834c0,0.461,0.374,0.834,0.833,0.834
		s0.834-0.373,0.834-0.834v-0.834C25.834,39.956,25.46,39.584,25,39.584z"/>
</g>
</svg>
