<?xml version="1.0" encoding="utf-8"?>
<!-- Generator: Adobe Illustrator 16.0.0, SVG Export Plug-In . SVG Version: 6.00 Build 0)  -->
<!DOCTYPE svg PUBLIC "-//W3C//DTD SVG 1.1//EN" "http://www.w3.org/Graphics/SVG/1.1/DTD/svg11.dtd">
<svg version="1.1" id="Capa_1" xmlns="http://www.w3.org/2000/svg" xmlns:xlink="http://www.w3.org/1999/xlink" x="0px" y="0px"
	 width="50px" height="50px" viewBox="0 0 50 50" enable-background="new 0 0 50 50" xml:space="preserve">
<g>
	<path fill="#FFFFFF" d="M44.492,5.085H32.59c-0.094-1.06-0.42-2.846-1.537-3.993C30.347,0.368,29.45,0,28.389,0h-8.474
		c-1.061,0-1.958,0.368-2.664,1.092c-1.117,1.146-1.443,2.933-1.537,3.993H5.508c-0.468,0-0.847,0.378-0.847,0.847
		S5.041,6.78,5.508,6.78h38.984c0.467,0,0.847-0.379,0.847-0.848S44.959,5.085,44.492,5.085z M18.468,2.272
		c0.38-0.388,0.854-0.577,1.447-0.577h8.474c0.594,0,1.068,0.189,1.447,0.577c0.683,0.698,0.957,1.925,1.051,2.813H17.418
		C17.513,4.197,17.787,2.97,18.468,2.272z"/>
	<path fill="#FFFFFF" d="M8.861,45.78c0.032,1.46,0.94,4.22,4.16,4.22h23.959c3.22,0,4.128-2.76,4.159-4.201l1.553-37.324H7.309
		L8.861,45.78z M40.925,10.169l-1.481,35.576c-0.004,0.262-0.121,2.56-2.464,2.56H13.021c-2.317,0-2.456-2.303-2.465-2.578
		l-1.48-35.557H40.925z"/>
	<path fill="#FFFFFF" d="M14.831,45.763H35.17c0.467,0,0.848-0.379,0.848-0.848c0-0.468-0.381-0.847-0.848-0.847H14.831
		c-0.468,0-0.848,0.379-0.848,0.847C13.983,45.384,14.363,45.763,14.831,45.763z"/>
	<path fill="#FFFFFF" d="M14.831,41.525H35.17c0.467,0,0.848-0.379,0.848-0.848s-0.381-0.848-0.848-0.848H14.831
		c-0.468,0-0.848,0.379-0.848,0.848S14.363,41.525,14.831,41.525z"/>
	<path fill="#FFFFFF" d="M14.831,37.288H35.17c0.467,0,0.848-0.379,0.848-0.848c0-0.468-0.381-0.847-0.848-0.847H14.831
		c-0.468,0-0.848,0.379-0.848,0.847C13.983,36.909,14.363,37.288,14.831,37.288z"/>
</g>
</svg>
