<?xml version="1.0" encoding="utf-8"?>
<!-- Generator: Adobe Illustrator 16.0.0, SVG Export Plug-In . SVG Version: 6.00 Build 0)  -->
<!DOCTYPE svg PUBLIC "-//W3C//DTD SVG 1.1//EN" "http://www.w3.org/Graphics/SVG/1.1/DTD/svg11.dtd">
<svg version="1.1" id="Layer_1" xmlns="http://www.w3.org/2000/svg" xmlns:xlink="http://www.w3.org/1999/xlink" x="0px" y="0px"
	 width="50px" height="50px" viewBox="0 0 50 50" enable-background="new 0 0 50 50" xml:space="preserve">
<g>
	<path fill="#FFFFFF" d="M25-0.055c-13.785,0-25,11.214-25,25c0,13.785,11.215,25,25,25c13.784,0,25-11.215,25-25
		C50,11.159,38.784-0.055,25-0.055z M25,48.022c-12.724,0-23.077-10.354-23.077-23.077C1.923,12.221,12.276,1.868,25,1.868
		c12.724,0,23.077,10.353,23.077,23.077C48.077,37.669,37.724,48.022,25,48.022z"/>
	<path fill="#FFFFFF" d="M25,9.561c-0.531,0-0.961,0.43-0.961,0.961v21.154c0,0.532,0.431,0.962,0.961,0.962
		c0.531,0,0.962-0.43,0.962-0.962V10.522C25.962,9.99,25.531,9.561,25,9.561z"/>
	<path fill="#FFFFFF" d="M25,35.522c-0.531,0-0.961,0.43-0.961,0.961v1.923c0,0.532,0.431,0.962,0.961,0.962
		c0.531,0,0.962-0.43,0.962-0.962v-1.923C25.962,35.952,25.531,35.522,25,35.522z"/>
</g>
</svg>
