<?xml version="1.0" encoding="utf-8"?>
<!-- Generator: Adobe Illustrator 16.0.0, SVG Export Plug-In . SVG Version: 6.00 Build 0)  -->
<!DOCTYPE svg PUBLIC "-//W3C//DTD SVG 1.1//EN" "http://www.w3.org/Graphics/SVG/1.1/DTD/svg11.dtd">
<svg version="1.1" id="Capa_1" xmlns="http://www.w3.org/2000/svg" xmlns:xlink="http://www.w3.org/1999/xlink" x="0px" y="0px"
	 width="50px" height="50px" viewBox="0 0 50 50" enable-background="new 0 0 50 50" xml:space="preserve">
<path fill="#FFFFFF" d="M25,0C11.214,0,0,11.214,0,25c0,13.785,11.214,25,25,25c13.785,0,25-11.215,25-25C50,11.214,38.785,0,25,0z
	 M25,48.077C12.276,48.077,1.923,37.725,1.923,25C1.923,12.276,12.276,1.923,25,1.923c12.725,0,23.077,10.353,23.077,23.077
	C48.077,37.725,37.725,48.077,25,48.077z"/>
<path fill="#FFFFFF" d="M25,36.154c-0.532,0-0.961,0.43-0.961,0.962v1.922C24.039,39.57,24.468,40,25,40
	c0.531,0,0.961-0.43,0.961-0.962v-1.922C25.961,36.584,25.531,36.154,25,36.154z"/>
<path fill="#FFFFFF" d="M25.109,9.232c-0.037,0-0.073-0.001-0.111-0.001c-2.035,0-3.948,0.784-5.399,2.215
	c-1.477,1.457-2.292,3.402-2.292,5.478c0,0.531,0.43,0.961,0.961,0.961s0.962-0.43,0.962-0.961c0-1.556,0.61-3.016,1.718-4.108
	c1.108-1.093,2.584-1.697,4.133-1.66c3.04,0.042,5.644,2.646,5.685,5.686c0.029,2.003-0.96,3.848-2.645,4.935
	c-2.558,1.65-4.084,4.565-4.084,7.8v2.732c0,0.532,0.43,0.962,0.961,0.962c0.531,0,0.961-0.43,0.961-0.962v-2.732
	c0-2.541,1.228-4.909,3.205-6.185c2.244-1.448,3.563-3.906,3.525-6.577C32.634,12.691,29.232,9.29,25.109,9.232z"/>
</svg>
