<?xml version="1.0" encoding="utf-8"?>
<!-- Generator: Adobe Illustrator 16.0.0, SVG Export Plug-In . SVG Version: 6.00 Build 0)  -->
<!DOCTYPE svg PUBLIC "-//W3C//DTD SVG 1.1//EN" "http://www.w3.org/Graphics/SVG/1.1/DTD/svg11.dtd">
<svg version="1.1" id="Capa_1" xmlns="http://www.w3.org/2000/svg" xmlns:xlink="http://www.w3.org/1999/xlink" x="0px" y="0px"
	 width="50px" height="50px" viewBox="0 0 50 50" enable-background="new 0 0 50 50" xml:space="preserve">
<path fill="#FFFFFF" d="M8.75,5.833C6.683,5.833,5,7.516,5,9.583c0,2.067,1.683,3.75,3.75,3.75s3.75-1.683,3.75-3.75
	C12.5,7.516,10.817,5.833,8.75,5.833z M8.75,11.667c-1.148,0-2.083-0.934-2.083-2.083C6.667,8.434,7.602,7.5,8.75,7.5
	s2.083,0.934,2.083,2.083C10.833,10.732,9.898,11.667,8.75,11.667z"/>
<circle fill="#FFFFFF" cx="41.666" cy="8.333" r="0.833"/>
<circle fill="#FFFFFF" cx="38.334" cy="8.333" r="0.833"/>
<circle fill="#FFFFFF" cx="43.334" cy="10.833" r="0.833"/>
<circle fill="#FFFFFF" cx="40" cy="10.833" r="0.833"/>
<circle fill="#FFFFFF" cx="35" cy="8.333" r="0.833"/>
<circle fill="#FFFFFF" cx="36.666" cy="10.833" r="0.833"/>
<circle fill="#FFFFFF" cx="31.666" cy="8.333" r="0.833"/>
<circle fill="#FFFFFF" cx="33.334" cy="10.833" r="0.833"/>
<circle fill="#FFFFFF" cx="28.334" cy="8.333" r="0.833"/>
<circle fill="#FFFFFF" cx="30" cy="10.833" r="0.833"/>
<path fill="#FFFFFF" d="M25.834,34.166H46.16c2.117,0,3.84-1.722,3.84-3.84v-9.819c0-1.224-0.586-2.304-1.48-3.007
	c0.895-0.703,1.48-1.783,1.48-3.007v-9.82c0-2.118-1.723-3.84-3.84-3.84H3.84C1.723,0.833,0,2.556,0,4.673v9.819
	c0,1.224,0.586,2.304,1.481,3.007C0.586,18.203,0,19.283,0,20.507v9.819c0,2.118,1.723,3.84,3.84,3.84h20.327 M48.334,20.507v9.819
	c0,1.199-0.976,2.174-2.174,2.174H3.84c-1.198,0-2.173-0.975-2.173-2.174v-9.819c0-1.199,0.975-2.173,2.173-2.173h42.319
	C47.358,18.333,48.334,19.308,48.334,20.507z M3.84,16.667c-1.198,0-2.173-0.975-2.173-2.173v-9.82C1.667,3.475,2.642,2.5,3.84,2.5
	h42.319c1.199,0,2.175,0.975,2.175,2.173v9.819c0,1.199-0.976,2.174-2.174,2.174H3.84z"/>
<path fill="#FFFFFF" d="M8.75,29.166c2.067,0,3.75-1.682,3.75-3.75c0-2.067-1.683-3.75-3.75-3.75S5,23.349,5,25.417
	C5,27.484,6.683,29.166,8.75,29.166z M8.75,23.333c1.148,0,2.083,0.934,2.083,2.083c0,1.15-0.935,2.083-2.083,2.083
	s-2.083-0.934-2.083-2.083C6.667,24.268,7.602,23.333,8.75,23.333z"/>
<circle fill="#FFFFFF" cx="41.666" cy="24.167" r="0.833"/>
<circle fill="#FFFFFF" cx="38.334" cy="24.167" r="0.833"/>
<circle fill="#FFFFFF" cx="43.334" cy="26.667" r="0.833"/>
<circle fill="#FFFFFF" cx="40" cy="26.667" r="0.833"/>
<circle fill="#FFFFFF" cx="35" cy="24.167" r="0.833"/>
<circle fill="#FFFFFF" cx="36.666" cy="26.667" r="0.833"/>
<circle fill="#FFFFFF" cx="31.666" cy="24.167" r="0.833"/>
<circle fill="#FFFFFF" cx="33.334" cy="26.667" r="0.833"/>
<circle fill="#FFFFFF" cx="28.334" cy="24.167" r="0.833"/>
<circle fill="#FFFFFF" cx="30" cy="26.667" r="0.833"/>
<g>
	<path fill="#FFFFFF" d="M18.334,44.168h-17.5C0.373,44.168,0,44.541,0,45.002s0.373,0.834,0.834,0.834h17.5
		c0.459,0,0.832-0.373,0.832-0.834S18.793,44.168,18.334,44.168z"/>
	<path fill="#FFFFFF" d="M49.166,44.168h-17.5c-0.459,0-0.832,0.373-0.832,0.834s0.373,0.834,0.832,0.834h17.5
		c0.461,0,0.834-0.373,0.834-0.834S49.627,44.168,49.166,44.168z"/>
	<path fill="#FFFFFF" d="M25.346,34.168h0.29c0.46,0,0.833-0.372,0.833-0.832c0-0.461-0.373-0.834-0.833-0.834h-0.854
		c-0.404,0-0.727,0.293-0.803,0.676l-4.15,4.152l1.178,1.178L25.346,34.168z"/>
	<path fill="#FFFFFF" d="M28.994,36.496l-4.379,4.379c-2.114,0.196-3.781,1.961-3.781,4.127c0,2.297,1.869,4.166,4.166,4.166
		s4.166-1.869,4.166-4.166c0-1.707-1.033-3.172-2.504-3.816l3.51-3.512L28.994,36.496z M27.5,45.002c0,1.379-1.121,2.5-2.5,2.5
		s-2.5-1.121-2.5-2.5s1.121-2.5,2.5-2.5S27.5,43.623,27.5,45.002z"/>
</g>
</svg>
