<?xml version="1.0" standalone="no"?>
<!DOCTYPE svg PUBLIC "-//W3C//DTD SVG 20010904//EN"
 "http://www.w3.org/TR/2001/REC-SVG-20010904/DTD/svg10.dtd">
<svg version="1.0" xmlns="http://www.w3.org/2000/svg"
 width="120.000000pt" height="128.000000pt" viewBox="0 0 120.000000 128.000000"
 preserveAspectRatio="xMidYMid meet">
<metadata>
Created by potrace 1.12, written by Peter Selinger 2001-2015
</metadata>
<g transform="translate(0.000000,128.000000) scale(0.100000,-0.100000)"
fill="#0000ff" stroke="none">
<path d="M483 1225 c-215 -39 -402 -214 -464 -435 -7 -25 -13 -94 -13 -155 0
-93 5 -122 27 -183 34 -98 79 -170 146 -236 231 -227 596 -232 829 -11 77 73
123 143 160 247 22 63 26 89 25 188 0 97 -4 126 -25 187 -37 104 -72 159 -152
238 -87 86 -189 140 -303 160 -94 17 -136 17 -230 0z m217 -146 c116 -27 247
-125 298 -224 69 -136 69 -294 0 -429 -29 -56 -113 -141 -172 -175 -145 -82
-316 -80 -462 5 -52 31 -135 118 -162 170 -94 185 -58 400 90 540 54 51 137
97 205 113 53 12 149 13 203 0z"/>
<path d="M573 933 c-29 -5 -63 -49 -63 -80 0 -13 11 -35 25 -48 50 -51 155
-18 155 49 0 50 -59 89 -117 79z"/>
<path d="M520 530 l0 -190 80 0 80 0 0 190 0 190 -80 0 -80 0 0 -190z"/>
</g>
</svg>
