<svg xmlns="http://www.w3.org/2000/svg" xmlns:xlink="http://www.w3.org/1999/xlink" preserveAspectRatio="xMidYMid" width="128" height="128.062" viewBox="0 0 128 128.062">
  <defs>
    <style>
      .cls-1 {
        fill: #2f2f2f;
        fill-rule: evenodd;
      }
    </style>
  </defs>
  <path d="M48.042,127.334 C47.677,127.770 47.140,128.020 46.580,128.020 C46.016,128.020 45.483,127.770 45.121,127.330 C43.278,125.105 0.014,72.514 0.014,47.133 C0.014,21.130 20.903,-0.025 46.580,-0.025 C72.257,-0.025 93.147,21.130 93.147,47.133 C93.147,72.518 49.882,125.105 48.042,127.334 ZM46.580,3.831 C23.002,3.831 3.822,23.255 3.822,47.133 C3.822,68.616 38.921,113.517 46.580,123.054 C54.235,113.513 89.338,68.612 89.338,47.133 C89.334,23.255 70.155,3.831 46.580,3.831 ZM46.580,69.032 C34.656,69.032 24.952,59.206 24.952,47.129 C24.952,35.051 34.652,25.226 46.580,25.226 C58.508,25.226 68.208,35.051 68.208,47.129 C68.208,59.206 58.504,69.032 46.580,69.032 ZM46.580,29.086 C36.754,29.086 28.760,37.180 28.760,47.133 C28.760,57.086 36.754,65.180 46.580,65.180 C56.406,65.180 64.400,57.086 64.400,47.133 C64.400,37.180 56.406,29.086 46.580,29.086 Z" transform="translate(17.42 0.03)" class="cls-1"/>
</svg>
