<?xml version="1.0" encoding="utf-8"?>
<!-- Generator: Adobe Illustrator 16.0.0, SVG Export Plug-In . SVG Version: 6.00 Build 0)  -->
<!DOCTYPE svg PUBLIC "-//W3C//DTD SVG 1.1//EN" "http://www.w3.org/Graphics/SVG/1.1/DTD/svg11.dtd">
<svg version="1.1" id="Capa_1" xmlns="http://www.w3.org/2000/svg" xmlns:xlink="http://www.w3.org/1999/xlink" x="0px" y="0px"
	 width="595.279px" height="841.891px" viewBox="0 0 595.279 841.891" enable-background="new 0 0 595.279 841.891"
	 xml:space="preserve">
<g>
	<path fill="#2F2F2F" d="M297.74,411.958c-2.255,0-4.091,1.835-4.091,4.09s1.836,4.091,4.091,4.091s4.091-1.835,4.091-4.091
		S299.995,411.958,297.74,411.958z M297.74,418.97c-1.611,0-2.922-1.311-2.922-2.922c0-1.611,1.311-2.922,2.922-2.922
		c1.612,0,2.921,1.311,2.921,2.922C300.661,417.66,299.352,418.97,297.74,418.97z"/>
	<path fill="#2F2F2F" d="M305.561,408.228c-2.116-2.117-4.931-3.283-7.924-3.283s-5.808,1.166-7.925,3.283
		c-3.917,3.917-4.404,11.286-1.054,15.751l8.979,12.967l8.965-12.949C309.965,419.514,309.478,412.145,305.561,408.228z
		 M305.654,423.313l-8.017,11.578l-8.03-11.597c-3.039-4.051-2.603-10.706,0.933-14.241c1.896-1.896,4.417-2.94,7.098-2.94
		c2.68,0,5.202,1.044,7.098,2.94C308.271,412.589,308.705,419.244,305.654,423.313z"/>
</g>
</svg>
