<?xml version="1.0" encoding="utf-8"?>
<!-- Generator: Adobe Illustrator 16.0.0, SVG Export Plug-In . SVG Version: 6.00 Build 0)  -->
<!DOCTYPE svg PUBLIC "-//W3C//DTD SVG 1.1//EN" "http://www.w3.org/Graphics/SVG/1.1/DTD/svg11.dtd">
<svg version="1.1" id="Layer_1" xmlns="http://www.w3.org/2000/svg" xmlns:xlink="http://www.w3.org/1999/xlink" x="0px" y="0px"
	 width="49.375px" height="35.625px" viewBox="0 0 49.375 35.625" enable-background="new 0 0 49.375 35.625" xml:space="preserve">
<path fill="#FFFFFF" d="M44.053,16.552c-2.936,0-5.323-2.388-5.323-5.322c0-1.029,0.298-1.987,0.806-2.802l-4.247-4.247
	c-2.349-2.348-6.169-2.348-8.517,0c-1.152,1.153-1.805,2.661-1.837,4.245c-0.031,1.584,0.569,3.074,1.691,4.196l8.693,8.695
	c1.601,1.599,2.517,3.707,2.581,5.936c0.065,2.281-0.775,4.414-2.367,6.006c-1.578,1.578-3.662,2.363-5.771,2.363
	c-2.213,0-4.453-0.863-6.168-2.578l-3.162-3.162c-1.456,1.12-3.248,1.731-5.164,1.731c-0.037,0-0.074,0-0.111-0.001
	c-2.306-0.027-4.456-0.924-6.053-2.521c-0.253-0.253-0.367-0.59-0.349-0.922l-7.795-7.794c-0.94-0.941-1.025-1.83-0.931-2.411
	c0.187-1.151,1.181-1.947,1.771-2.327c0.055-0.252,0.184-0.501,0.391-0.708c0.509-0.51,1.276-0.568,1.712-0.132
	C4.338,15.233,4.279,16,3.77,16.509c-0.283,0.283-0.644,0.421-0.984,0.418c-0.387,0.233-1.075,0.749-1.163,1.298
	c-0.018,0.112-0.072,0.454,0.479,1.005l7.795,7.795c0.331-0.018,0.668,0.097,0.921,0.35c1.13,1.131,2.722,1.791,4.367,1.811
	c1.66,0.02,3.209-0.59,4.337-1.718c1.123-1.122,1.723-2.65,1.691-4.303c-0.031-1.628-0.701-3.214-1.836-4.349
	c-0.253-0.254-0.367-0.59-0.35-0.922L11.233,10.1c-0.552-0.552-0.895-0.497-1.007-0.479c-0.655,0.106-1.26,1.069-1.386,1.322
	c-0.045,0.09-0.106,0.167-0.176,0.23c-0.03,0.301-0.169,0.61-0.416,0.857c-0.509,0.51-1.276,0.568-1.712,0.132
	c-0.437-0.437-0.378-1.203,0.132-1.712c0.238-0.239,0.533-0.374,0.823-0.411c0.286-0.5,1.144-1.799,2.476-2.015
	c0.582-0.095,1.47-0.009,2.411,0.932l7.794,7.795c0.332-0.018,0.668,0.096,0.921,0.35c1.599,1.599,2.503,3.735,2.547,6.019
	c0.036,1.843-0.505,3.577-1.526,5.014l3.194,3.194c2.405,2.404,6.223,2.501,8.509,0.215c1.115-1.115,1.704-2.614,1.657-4.221
	c-0.046-1.606-0.711-3.13-1.871-4.29l-8.693-8.694c-1.593-1.593-2.446-3.71-2.401-5.959c0.044-2.214,0.949-4.313,2.547-5.913
	c3.294-3.294,8.653-3.294,11.948,0l4.246,4.247c0.815-0.507,1.773-0.806,2.803-0.806c2.935,0,5.322,2.388,5.322,5.323
	C49.373,14.165,46.986,16.552,44.053,16.552z M44.053,8.333c-1.598,0-2.896,1.299-2.896,2.897c0,1.596,1.299,2.896,2.896,2.896
	c1.596,0,2.895-1.299,2.896-2.896C46.948,9.632,45.648,8.333,44.053,8.333z M44.053,12.441c-0.67,0-1.213-0.542-1.213-1.211
	c0-0.669,0.543-1.212,1.213-1.212c0.668,0,1.211,0.542,1.211,1.212C45.264,11.898,44.721,12.44,44.053,12.441z"/>
</svg>
