<svg xmlns="http://www.w3.org/2000/svg" xmlns:xlink="http://www.w3.org/1999/xlink" preserveAspectRatio="xMidYMid" width="49.375" height="35.625" viewBox="0 0 122.094 88.094">
  <defs>
    <style>
      .cls-1 {
        fill: #000;
        filter: url(#color-overlay-1);
        fill-rule: evenodd;
      }
    </style>

    <filter id="color-overlay-1" filterUnits="userSpaceOnUse">
      <feFlood flood-color="#5d628a"/>
      <feComposite operator="in" in2="SourceGraphic"/>
      <feBlend in2="SourceGraphic" result="solidFill"/>
    </filter>
  </defs>
  <path d="M108.932,40.929 C101.674,40.929 95.770,35.025 95.770,27.768 C95.770,25.224 96.507,22.855 97.762,20.839 L87.260,10.338 C81.453,4.533 72.005,4.533 66.200,10.338 C63.349,13.189 61.736,16.917 61.658,20.834 C61.581,24.751 63.066,28.436 65.841,31.211 L87.338,52.710 C91.294,56.665 93.561,61.878 93.719,67.388 C93.882,73.029 91.803,78.303 87.865,82.240 C83.964,86.142 78.810,88.083 73.593,88.083 C68.122,88.083 62.582,85.950 58.341,81.708 L50.523,73.890 C46.924,76.659 42.491,78.172 37.753,78.172 C37.661,78.172 37.570,78.171 37.478,78.170 C31.776,78.100 26.460,75.886 22.510,71.936 C21.884,71.311 21.603,70.477 21.646,69.657 L2.370,50.382 C0.045,48.056 -0.166,45.857 0.067,44.422 C0.529,41.576 2.987,39.608 4.447,38.668 C4.583,38.044 4.901,37.428 5.413,36.916 C6.673,35.656 8.568,35.510 9.647,36.590 C10.727,37.670 10.581,39.564 9.322,40.824 C8.623,41.523 7.731,41.865 6.889,41.859 C5.932,42.436 4.230,43.712 4.014,45.068 C3.970,45.346 3.836,46.191 5.198,47.553 L24.475,66.830 C25.294,66.787 26.127,67.068 26.752,67.694 C29.548,70.489 33.484,72.121 37.551,72.170 C41.656,72.218 45.486,70.712 48.276,67.923 C51.052,65.147 52.537,61.369 52.458,57.283 C52.381,53.257 50.725,49.337 47.917,46.528 C47.291,45.903 47.011,45.070 47.053,44.250 L27.777,24.974 C26.412,23.610 25.566,23.746 25.286,23.791 C23.667,24.053 22.171,26.436 21.860,27.060 C21.748,27.283 21.597,27.471 21.425,27.630 C21.351,28.375 21.008,29.137 20.396,29.749 C19.137,31.009 17.241,31.154 16.162,30.075 C15.082,28.995 15.228,27.099 16.488,25.840 C17.077,25.250 17.805,24.915 18.524,24.825 C19.230,23.588 21.352,20.377 24.646,19.843 C26.083,19.608 28.281,19.821 30.606,22.146 L49.881,41.422 C50.701,41.379 51.534,41.660 52.159,42.286 C56.112,46.238 58.348,51.523 58.457,57.168 C58.545,61.726 57.208,66.015 54.684,69.567 L62.583,77.466 C68.531,83.412 77.969,83.650 83.623,77.998 C86.381,75.240 87.836,71.534 87.722,67.561 C87.608,63.588 85.964,59.820 83.096,56.952 L61.598,35.453 C57.658,31.513 55.549,26.279 55.659,20.716 C55.768,15.240 58.005,10.049 61.958,6.095 C70.103,-2.050 83.356,-2.051 91.502,6.095 L102.004,16.597 C104.019,15.343 106.388,14.605 108.932,14.605 C116.190,14.605 122.094,20.510 122.094,27.768 C122.091,35.026 116.187,40.929 108.932,40.929 ZM108.932,20.605 C104.983,20.605 101.770,23.818 101.770,27.768 C101.770,31.716 104.983,34.929 108.932,34.929 C112.880,34.929 116.093,31.716 116.094,27.767 C116.094,23.818 112.881,20.605 108.932,20.605 ZM108.932,30.764 C107.278,30.764 105.936,29.422 105.936,27.768 C105.936,26.113 107.278,24.772 108.932,24.772 C110.586,24.772 111.928,26.113 111.928,27.768 C111.928,29.422 110.586,30.763 108.932,30.764 Z" class="cls-1"/>
</svg>
