<svg xmlns="http://www.w3.org/2000/svg" xmlns:xlink="http://www.w3.org/1999/xlink" preserveAspectRatio="xMidYMid" width="35.652" height="35.297" viewBox="0 0 94.094 93.156">
  <defs>
    <style>
      .cls-1 {
        fill: #000;
        filter: url(#color-overlay-1);
        fill-rule: evenodd;
      }
    </style>

    <filter id="color-overlay-1" filterUnits="userSpaceOnUse">
      <feFlood flood-color="#5d628a"/>
      <feComposite operator="in" in2="SourceGraphic"/>
      <feBlend in2="SourceGraphic" result="solidFill"/>
    </filter>
  </defs>
  <path d="M88.798,32.192 L74.245,46.608 L88.021,60.254 C95.521,67.682 95.521,79.770 88.021,87.198 C84.388,90.797 79.558,92.779 74.420,92.779 C69.283,92.779 64.453,90.797 60.820,87.198 L47.044,73.552 L32.536,87.923 C29.110,91.317 24.612,93.157 19.791,93.157 C19.510,93.157 19.227,93.151 18.944,93.138 C13.998,92.919 9.267,90.809 5.622,87.198 C1.989,83.599 -0.012,78.815 -0.012,73.726 C-0.012,68.636 1.989,63.852 5.622,60.253 L19.620,46.387 L5.622,32.521 C-1.877,25.092 -1.877,13.005 5.622,5.577 C9.255,1.978 14.085,-0.004 19.223,-0.004 C24.360,-0.004 29.191,1.978 32.824,5.577 L46.822,19.443 L60.820,5.577 C68.319,-1.852 80.522,-1.852 88.021,5.577 C95.772,13.255 96.113,24.946 88.798,32.192 ZM9.884,64.475 C7.390,66.946 6.016,70.232 6.016,73.726 C6.016,77.220 7.390,80.505 9.884,82.975 C12.463,85.529 15.776,87.020 19.214,87.173 C22.648,87.337 25.860,86.093 28.274,83.701 L42.782,69.330 L23.882,50.609 L9.884,64.475 ZM28.561,9.799 C26.067,7.328 22.750,5.967 19.223,5.967 C15.695,5.967 12.379,7.328 9.885,9.799 C4.735,14.899 4.735,23.199 9.885,28.300 L65.082,82.976 C67.576,85.447 70.893,86.808 74.420,86.808 C77.948,86.808 81.264,85.447 83.759,82.976 C88.908,77.875 88.908,69.577 83.759,64.476 L28.561,9.799 ZM83.758,9.799 C78.610,4.699 70.231,4.699 65.082,9.799 L51.084,23.665 L69.983,42.386 L84.536,27.970 C89.461,23.091 89.119,15.109 83.758,9.799 ZM77.194,25.723 C76.017,24.557 76.017,22.667 77.194,21.501 C78.371,20.335 80.279,20.335 81.456,21.501 C82.632,22.667 82.633,24.557 81.456,25.723 C80.280,26.889 78.370,26.889 77.194,25.723 ZM67.959,34.872 C66.781,33.705 66.781,31.815 67.959,30.650 C69.136,29.483 71.043,29.483 72.221,30.650 C73.398,31.815 73.398,33.705 72.221,34.872 C71.044,36.038 69.135,36.037 67.959,34.872 ZM67.959,16.575 C66.781,15.409 66.781,13.519 67.959,12.353 C69.136,11.187 71.043,11.187 72.221,12.353 C73.398,13.518 73.398,15.409 72.221,16.575 C71.044,17.741 69.135,17.741 67.959,16.575 ZM58.723,25.723 C57.546,24.557 57.546,22.667 58.723,21.501 C59.901,20.335 61.808,20.335 62.985,21.501 C64.162,22.667 64.163,24.557 62.985,25.723 C61.809,26.889 59.900,26.889 58.723,25.723 ZM52.203,58.183 C51.029,59.347 48.976,59.199 47.619,57.854 L35.189,45.543 C33.831,44.198 33.683,42.165 34.858,41.001 L41.474,34.448 C42.648,33.284 44.701,33.431 46.060,34.776 L58.488,47.087 C59.846,48.432 59.994,50.466 58.820,51.629 L52.203,58.183 ZM25.696,62.660 C24.520,63.827 22.611,63.826 21.434,62.660 C20.257,61.494 20.257,59.604 21.434,58.438 C22.612,57.272 24.519,57.272 25.696,58.438 C26.874,59.604 26.874,61.494 25.696,62.660 ZM25.696,76.735 C26.874,77.900 26.874,79.791 25.696,80.957 C24.520,82.123 22.611,82.123 21.434,80.957 C20.257,79.791 20.257,77.901 21.434,76.735 C22.612,75.569 24.519,75.569 25.696,76.735 ZM12.199,71.809 C11.021,70.642 11.021,68.752 12.199,67.587 C13.376,66.420 15.283,66.420 16.461,67.587 C17.637,68.752 17.638,70.642 16.461,71.809 C15.284,72.975 13.375,72.974 12.199,71.809 ZM34.932,67.587 C36.108,68.752 36.109,70.642 34.932,71.809 C33.755,72.975 31.846,72.974 30.670,71.809 C29.492,70.642 29.492,68.752 30.670,67.587 C31.847,66.420 33.754,66.420 34.932,67.587 Z" class="cls-1"/>
</svg>
