<?xml version="1.0" encoding="utf-8"?>
<!-- Generator: Adobe Illustrator 16.0.0, SVG Export Plug-In . SVG Version: 6.00 Build 0)  -->
<!DOCTYPE svg PUBLIC "-//W3C//DTD SVG 1.1//EN" "http://www.w3.org/Graphics/SVG/1.1/DTD/svg11.dtd">
<svg version="1.1" id="Layer_1" xmlns="http://www.w3.org/2000/svg" xmlns:xlink="http://www.w3.org/1999/xlink" x="0px" y="0px"
	 width="35.652px" height="35.297px" viewBox="0 0 35.652 35.297" enable-background="new 0 0 35.652 35.297" xml:space="preserve">
<path fill="#FFFFFF" d="M33.645,12.198l-5.514,5.462l5.22,5.17c2.842,2.814,2.842,7.395,0,10.209
	c-1.377,1.363-3.207,2.115-5.153,2.115c-1.947,0-3.777-0.752-5.153-2.115l-5.22-5.17l-5.497,5.445
	c-1.298,1.285-3.003,1.982-4.829,1.982c-0.106,0-0.214-0.002-0.321-0.007c-1.874-0.083-3.666-0.882-5.047-2.251
	c-1.377-1.363-2.135-3.176-2.135-5.104s0.758-3.741,2.135-5.104l5.304-5.254l-5.304-5.254c-2.842-2.815-2.842-7.395,0-10.209
	C3.507,0.75,5.337-0.001,7.284-0.001c1.946,0,3.776,0.751,5.153,2.115l5.304,5.254l5.304-5.254c2.841-2.815,7.465-2.815,10.307,0
	C36.288,5.022,36.417,9.452,33.645,12.198z M3.745,24.43c-0.944,0.936-1.466,2.182-1.466,3.505c0,1.324,0.521,2.569,1.466,3.505
	c0.978,0.967,2.232,1.532,3.535,1.59c1.301,0.063,2.519-0.408,3.433-1.314l5.497-5.445l-7.161-7.094L3.745,24.43z M10.822,3.713
	C9.877,2.777,8.62,2.261,7.284,2.261c-1.337,0-2.594,0.516-3.538,1.452c-1.952,1.933-1.952,5.077,0,7.01l20.913,20.716
	c0.945,0.937,2.202,1.452,3.539,1.452c1.336,0,2.593-0.516,3.538-1.452c1.951-1.933,1.951-5.076,0-7.01L10.822,3.713z M31.736,3.713
	c-1.951-1.932-5.126-1.932-7.077,0l-5.304,5.254l7.161,7.093l5.514-5.462C33.896,8.75,33.767,5.725,31.736,3.713z M29.249,9.747
	c-0.446-0.442-0.446-1.158,0-1.6s1.169-0.442,1.614,0c0.446,0.442,0.446,1.158,0,1.6C30.418,10.188,29.694,10.188,29.249,9.747z
	 M25.75,13.213c-0.446-0.442-0.446-1.158,0-1.6c0.445-0.442,1.168-0.442,1.614,0c0.446,0.441,0.446,1.158,0,1.6
	C26.919,13.655,26.195,13.654,25.75,13.213z M25.75,6.28c-0.446-0.441-0.446-1.158,0-1.6c0.445-0.442,1.168-0.442,1.614,0
	c0.446,0.441,0.446,1.158,0,1.6C26.919,6.722,26.195,6.722,25.75,6.28z M22.25,9.747c-0.445-0.442-0.445-1.158,0-1.6
	c0.446-0.442,1.169-0.442,1.615,0s0.446,1.158,0,1.6C23.42,10.188,22.696,10.188,22.25,9.747z M19.78,22.045
	c-0.445,0.441-1.223,0.386-1.737-0.124l-4.71-4.665c-0.515-0.51-0.57-1.28-0.125-1.721l2.507-2.483
	c0.444-0.441,1.223-0.385,1.737,0.125l4.709,4.665c0.515,0.51,0.57,1.28,0.126,1.721L19.78,22.045z M9.736,23.742
	c-0.445,0.441-1.169,0.441-1.615,0c-0.445-0.441-0.445-1.158,0-1.6c0.447-0.442,1.169-0.442,1.615,0
	C10.182,22.584,10.182,23.301,9.736,23.742z M9.736,29.074c0.446,0.441,0.446,1.158,0,1.601c-0.445,0.441-1.169,0.441-1.615,0
	c-0.445-0.442-0.445-1.158,0-1.601C8.568,28.633,9.29,28.633,9.736,29.074z M4.622,27.209c-0.446-0.443-0.446-1.158,0-1.6
	c0.446-0.443,1.169-0.443,1.615,0c0.445,0.441,0.446,1.156,0,1.6C5.791,27.65,5.068,27.65,4.622,27.209z M13.236,25.609
	c0.445,0.441,0.445,1.156,0,1.6c-0.446,0.441-1.17,0.441-1.615,0c-0.446-0.443-0.446-1.158,0-1.6
	C12.067,25.166,12.79,25.166,13.236,25.609z"/>
</svg>
