<?xml version="1.0" encoding="utf-8"?>
<!-- Generator: Adobe Illustrator 16.0.0, SVG Export Plug-In . SVG Version: 6.00 Build 0)  -->
<!DOCTYPE svg PUBLIC "-//W3C//DTD SVG 1.1//EN" "http://www.w3.org/Graphics/SVG/1.1/DTD/svg11.dtd">
<svg version="1.1" id="Layer_1" xmlns="http://www.w3.org/2000/svg" xmlns:xlink="http://www.w3.org/1999/xlink" x="0px" y="0px"
	 width="46.742px" height="33.994px" viewBox="0 0 46.742 33.994" enable-background="new 0 0 46.742 33.994" xml:space="preserve">
<path fill="#FFFFFF" d="M45.583,33.994H1.159C0.519,33.994,0,33.476,0,32.835v-13.52c0-0.209,0.057-0.414,0.163-0.594l3.68-6.181
	c0.209-0.351,0.587-0.566,0.996-0.566h1.159h2.115V10.43c0-0.16,0.033-0.318,0.097-0.464l2.534-5.794
	c0.184-0.422,0.601-0.695,1.062-0.695h1.159h3.647V1.159C16.611,0.519,17.129,0,17.77,0h10.816c0.641,0,1.159,0.519,1.159,1.159
	v2.318h3.273h0.386c0.303,0,0.587,0.123,0.801,0.329c0.406,0.225,0.76,0.548,0.976,0.929l1.237,2.177l2.002,2.853
	c0.137,0.195,0.21,0.427,0.21,0.666v1.545h2.704h0.772c0.42,0,0.808,0.227,1.013,0.594l3.477,6.229
	c0.096,0.173,0.146,0.367,0.146,0.565v13.472C46.742,33.476,46.223,33.994,45.583,33.994z M8.885,14.293H5.998
	c-0.054,0.008-0.191,0.082-0.235,0.134l-2.445,3.728h5.567V14.293z M8.885,19.701H2.318v11.976h6.567V19.701z M27.428,2.318h-8.499
	v1.159h8.499V2.318z M34.457,8.154l-1.654-2.359h-3.058v1.159c0,0.64-0.519,1.159-1.159,1.159s-1.158-0.519-1.158-1.159V5.794
	h-8.499v1.159c0,0.64-0.519,1.159-1.159,1.159s-1.159-0.519-1.159-1.159V5.794h-3.615c-0.021,0.009-0.049,0.027-0.066,0.043
	l-1.67,3.82h24.053L34.457,8.154z M36.313,18.929v-0.773v-4.249v-0.773v-1.847c-0.031-0.027-0.063-0.053-0.091-0.084H10.517
	c-0.026,0.029-0.059,0.049-0.087,0.076v1.855v18.543h25.882V18.929z M41.438,14.356c-0.011-0.008-0.087-0.054-0.129-0.063h-3.452
	v3.862h5.571L41.438,14.356z M44.424,19.701h-6.566v11.976h6.566V19.701z M21.247,20.86h1.159v-1.159
	c0-0.638,0.521-1.159,1.159-1.159s1.159,0.521,1.159,1.159v1.159h1.159c0.638,0,1.159,0.521,1.159,1.158
	c0,0.638-0.521,1.159-1.159,1.159h-1.159v1.159c0,0.637-0.521,1.158-1.159,1.158s-1.159-0.521-1.159-1.158v-1.159h-1.159
	c-0.638,0-1.159-0.521-1.159-1.159C20.087,21.382,20.609,20.86,21.247,20.86z"/>
</svg>
