<svg xmlns="http://www.w3.org/2000/svg" xmlns:xlink="http://www.w3.org/1999/xlink" preserveAspectRatio="xMidYMid" width="46.742" height="33.994" viewBox="0 0 121 88">
  <defs>
    <style>
      .cls-1 {
        fill: #000;
        filter: url(#color-overlay-1);
        fill-rule: evenodd;
      }
    </style>

    <filter id="color-overlay-1" filterUnits="userSpaceOnUse">
      <feFlood flood-color="#5d628a"/>
      <feComposite operator="in" in2="SourceGraphic"/>
      <feBlend in2="SourceGraphic" result="solidFill"/>
    </filter>
  </defs>
  <path d="M118.000,88.000 L3.000,88.000 C1.343,88.000 -0.000,86.657 -0.000,85.000 L-0.000,50.000 C-0.000,49.460 0.146,48.930 0.422,48.465 L9.948,32.465 C10.489,31.557 11.468,31.000 12.526,31.000 L15.526,31.000 L21.000,31.000 L21.000,27.000 C21.000,26.586 21.085,26.177 21.251,25.798 L27.810,10.798 C28.287,9.706 29.366,9.000 30.558,9.000 L33.558,9.000 L43.000,9.000 L43.000,3.000 C43.000,1.343 44.343,-0.000 46.000,-0.000 L74.000,-0.000 C75.657,-0.000 77.000,1.343 77.000,3.000 L77.000,9.000 L85.474,9.000 L86.474,9.000 C87.258,9.000 87.993,9.317 88.547,9.851 C89.598,10.433 90.511,11.271 91.071,12.257 L94.275,17.894 L99.456,25.277 C99.810,25.782 100.000,26.383 100.000,27.000 L100.000,31.000 L107.000,31.000 L109.000,31.000 C110.087,31.000 111.090,31.588 111.620,32.538 L120.620,48.663 C120.869,49.110 121.000,49.613 121.000,50.125 L121.000,85.000 C121.000,86.657 119.657,88.000 118.000,88.000 ZM23.000,37.000 L15.526,37.000 C15.387,37.020 15.031,37.212 14.916,37.348 L8.587,47.000 L23.000,47.000 L23.000,37.000 ZM23.000,51.000 L6.000,51.000 L6.000,82.000 L23.000,82.000 L23.000,51.000 ZM71.000,6.000 L49.000,6.000 L49.000,9.000 L71.000,9.000 L71.000,6.000 ZM89.200,21.108 L84.915,15.000 L77.000,15.000 L77.000,18.000 C77.000,19.657 75.657,21.000 74.000,21.000 C72.343,21.000 71.000,19.657 71.000,18.000 L71.000,15.000 L49.000,15.000 L49.000,18.000 C49.000,19.657 47.657,21.000 46.000,21.000 C44.343,21.000 43.000,19.657 43.000,18.000 L43.000,15.000 L33.642,15.000 C33.587,15.023 33.515,15.071 33.472,15.111 L29.148,25.000 L91.413,25.000 L89.200,21.108 ZM94.000,49.000 L94.000,47.000 L94.000,36.000 L94.000,34.000 L94.000,29.218 C93.921,29.147 93.839,29.080 93.767,29.000 L27.225,29.000 C27.158,29.075 27.074,29.128 27.000,29.196 L27.000,34.000 L27.000,82.000 L94.000,82.000 L94.000,49.000 ZM107.271,37.164 C107.242,37.143 107.047,37.026 106.937,37.000 L98.000,37.000 L98.000,47.000 L112.423,47.000 L107.271,37.164 ZM115.000,51.000 L98.000,51.000 L98.000,82.000 L115.000,82.000 L115.000,51.000 ZM55.000,54.000 L58.000,54.000 L58.000,51.000 C58.000,49.350 59.350,48.000 61.000,48.000 C62.650,48.000 64.000,49.350 64.000,51.000 L64.000,54.000 L67.000,54.000 C68.650,54.000 70.000,55.350 70.000,57.000 C70.000,58.650 68.650,60.000 67.000,60.000 L64.000,60.000 L64.000,63.000 C64.000,64.650 62.650,66.000 61.000,66.000 C59.350,66.000 58.000,64.650 58.000,63.000 L58.000,60.000 L55.000,60.000 C53.350,60.000 52.000,58.650 52.000,57.000 C52.000,55.350 53.350,54.000 55.000,54.000 Z" class="cls-1"/>
</svg>
